<svg xmlns="http://www.w3.org/2000/svg" width="200" height="200" viewBox="0 0 200 200">
  <rect width="200" height="200" fill="#000000"/>
  <g fill="#ffffff">
    <circle cx="20" cy="20" r="2"/>
    <circle cx="60" cy="20" r="2"/>
    <circle cx="100" cy="20" r="2"/>
    <circle cx="140" cy="20" r="2"/>
    <circle cx="180" cy="20" r="2"/>
    <circle cx="40" cy="60" r="2"/>
    <circle cx="80" cy="60" r="2"/>
    <circle cx="120" cy="60" r="2"/>
    <circle cx="160" cy="60" r="2"/>
    <circle cx="20" cy="100" r="2"/>
    <circle cx="60" cy="100" r="2"/>
    <circle cx="100" cy="100" r="2"/>
    <circle cx="140" cy="100" r="2"/>
    <circle cx="180" cy="100" r="2"/>
    <circle cx="40" cy="140" r="2"/>
    <circle cx="80" cy="140" r="2"/>
    <circle cx="120" cy="140" r="2"/>
    <circle cx="160" cy="140" r="2"/>
    <circle cx="20" cy="180" r="2"/>
    <circle cx="60" cy="180" r="2"/>
    <circle cx="100" cy="180" r="2"/>
    <circle cx="140" cy="180" r="2"/>
    <circle cx="180" cy="180" r="2"/>
  </g>
</svg>
