<svg xmlns="http://www.w3.org/2000/svg" width="400" height="1600" viewBox="0 0 400 1600" fill="none">
  <path
    d="M150 10
       C 250 130, 90 250, 170 380
       C 250 510, 90 630, 170 760
       C 250 890, 90 1010, 170 1140
       C 250 1270, 90 1390, 170 1520
       C 190 1560, 200 1580, 210 1590
       C 300 1470, 150 1350, 230 1220
       C 310 1090, 150 970, 230 840
       C 310 710, 150 590, 230 460
       C 310 330, 150 210, 230 90
       C 245 55, 235 30, 210 10 Z"
    fill="#000000"
  />
</svg>
